<mxfile host="app.diagrams.net" agent="Mozilla/5.0 (Windows NT 10.0; Win64; x64) AppleWebKit/537.36 (KHTML, like Gecko) Chrome/132.0.0.0 Safari/537.36" version="26.0.10">
  <diagram id="C5RBs43oDa-KdzZeNtuy" name="Page-1">
    <mxGraphModel dx="819" dy="426" grid="1" gridSize="10" guides="1" tooltips="1" connect="1" arrows="1" fold="1" page="1" pageScale="1" pageWidth="827" pageHeight="1169" math="0" shadow="0">
      <root>
        <mxCell id="WIyWlLk6GJQsqaUBKTNV-0" />
        <mxCell id="WIyWlLk6GJQsqaUBKTNV-1" parent="WIyWlLk6GJQsqaUBKTNV-0" />
        <mxCell id="d4LzkRzi1lua-EBWQe4--6" style="edgeStyle=orthogonalEdgeStyle;rounded=0;orthogonalLoop=1;jettySize=auto;html=1;exitX=1;exitY=0.5;exitDx=0;exitDy=0;entryX=0;entryY=0.5;entryDx=0;entryDy=0;" edge="1" parent="WIyWlLk6GJQsqaUBKTNV-1" source="d4LzkRzi1lua-EBWQe4--0" target="d4LzkRzi1lua-EBWQe4--5">
          <mxGeometry relative="1" as="geometry" />
        </mxCell>
        <mxCell id="d4LzkRzi1lua-EBWQe4--0" value="POST /transfer" style="rounded=0;whiteSpace=wrap;html=1;" vertex="1" parent="WIyWlLk6GJQsqaUBKTNV-1">
          <mxGeometry x="120" y="160" width="120" height="60" as="geometry" />
        </mxCell>
        <mxCell id="d4LzkRzi1lua-EBWQe4--2" style="edgeStyle=orthogonalEdgeStyle;rounded=0;orthogonalLoop=1;jettySize=auto;html=1;entryX=0;entryY=0.5;entryDx=0;entryDy=0;" edge="1" parent="WIyWlLk6GJQsqaUBKTNV-1" source="d4LzkRzi1lua-EBWQe4--1" target="d4LzkRzi1lua-EBWQe4--0">
          <mxGeometry relative="1" as="geometry" />
        </mxCell>
        <mxCell id="d4LzkRzi1lua-EBWQe4--1" value="" style="shape=actor;whiteSpace=wrap;html=1;" vertex="1" parent="WIyWlLk6GJQsqaUBKTNV-1">
          <mxGeometry x="20" y="160" width="40" height="60" as="geometry" />
        </mxCell>
        <mxCell id="d4LzkRzi1lua-EBWQe4--3" value="&lt;br&gt;&lt;div&gt;&lt;pre style=&quot;box-sizing: border-box; font-family: var(--fontStack-monospace, ui-monospace, SFMono-Regular, SF Mono, Menlo, Consolas, Liberation Mono, monospace); font-size: 13.6px; margin-top: 0px; margin-bottom: 0px; overflow-wrap: normal; padding: var(--base-size-16); overflow: auto; line-height: 1.45; background-color: rgb(21, 27, 35); border-radius: 6px; word-break: normal; min-height: 52px; text-align: start;&quot;&gt;{&lt;br&gt;  &lt;span class=&quot;pl-ent&quot; style=&quot;box-sizing: border-box;&quot;&gt;&quot;value&quot;&lt;/span&gt;: &lt;span class=&quot;pl-c1&quot; style=&quot;box-sizing: border-box;&quot;&gt;100.0&lt;/span&gt;,&lt;br&gt;  &lt;span class=&quot;pl-ent&quot; style=&quot;box-sizing: border-box;&quot;&gt;&quot;payer&quot;&lt;/span&gt;: &lt;span class=&quot;pl-c1&quot; style=&quot;box-sizing: border-box;&quot;&gt;4&lt;/span&gt;,&lt;br&gt;  &lt;span class=&quot;pl-ent&quot; style=&quot;box-sizing: border-box;&quot;&gt;&quot;payee&quot;&lt;/span&gt;: &lt;span class=&quot;pl-c1&quot; style=&quot;box-sizing: border-box;&quot;&gt;15&lt;/span&gt;&lt;br&gt;}&lt;/pre&gt;&lt;/div&gt;" style="text;html=1;align=center;verticalAlign=middle;resizable=0;points=[];autosize=1;fontColor=light-dark(#000000,#000000);" vertex="1" parent="WIyWlLk6GJQsqaUBKTNV-1">
          <mxGeometry x="105" y="200" width="150" height="130" as="geometry" />
        </mxCell>
        <mxCell id="d4LzkRzi1lua-EBWQe4--8" style="edgeStyle=orthogonalEdgeStyle;rounded=0;orthogonalLoop=1;jettySize=auto;html=1;exitX=1;exitY=0.5;exitDx=0;exitDy=0;" edge="1" parent="WIyWlLk6GJQsqaUBKTNV-1" source="d4LzkRzi1lua-EBWQe4--5">
          <mxGeometry relative="1" as="geometry">
            <mxPoint x="480" y="190" as="targetPoint" />
          </mxGeometry>
        </mxCell>
        <mxCell id="d4LzkRzi1lua-EBWQe4--11" style="edgeStyle=orthogonalEdgeStyle;rounded=0;orthogonalLoop=1;jettySize=auto;html=1;exitX=0.5;exitY=1;exitDx=0;exitDy=0;" edge="1" parent="WIyWlLk6GJQsqaUBKTNV-1" source="d4LzkRzi1lua-EBWQe4--5" target="d4LzkRzi1lua-EBWQe4--10">
          <mxGeometry relative="1" as="geometry" />
        </mxCell>
        <mxCell id="d4LzkRzi1lua-EBWQe4--5" value="Tem saldo?" style="rhombus;whiteSpace=wrap;html=1;" vertex="1" parent="WIyWlLk6GJQsqaUBKTNV-1">
          <mxGeometry x="320" y="150" width="80" height="80" as="geometry" />
        </mxCell>
        <mxCell id="d4LzkRzi1lua-EBWQe4--12" style="edgeStyle=orthogonalEdgeStyle;rounded=0;orthogonalLoop=1;jettySize=auto;html=1;exitX=0.5;exitY=1;exitDx=0;exitDy=0;entryX=1;entryY=0.5;entryDx=0;entryDy=0;" edge="1" parent="WIyWlLk6GJQsqaUBKTNV-1" source="d4LzkRzi1lua-EBWQe4--9" target="d4LzkRzi1lua-EBWQe4--10">
          <mxGeometry relative="1" as="geometry" />
        </mxCell>
        <mxCell id="d4LzkRzi1lua-EBWQe4--14" style="edgeStyle=orthogonalEdgeStyle;rounded=0;orthogonalLoop=1;jettySize=auto;html=1;exitX=1;exitY=0.5;exitDx=0;exitDy=0;entryX=0;entryY=0.5;entryDx=0;entryDy=0;" edge="1" parent="WIyWlLk6GJQsqaUBKTNV-1" source="d4LzkRzi1lua-EBWQe4--9">
          <mxGeometry relative="1" as="geometry">
            <mxPoint x="619.9999999999998" y="190" as="targetPoint" />
          </mxGeometry>
        </mxCell>
        <mxCell id="d4LzkRzi1lua-EBWQe4--9" value="Lojista transferindo?" style="rhombus;whiteSpace=wrap;html=1;fontSize=9;" vertex="1" parent="WIyWlLk6GJQsqaUBKTNV-1">
          <mxGeometry x="480" y="150" width="80" height="80" as="geometry" />
        </mxCell>
        <mxCell id="d4LzkRzi1lua-EBWQe4--10" value="" style="ellipse;whiteSpace=wrap;html=1;aspect=fixed;fillColor=#e51400;strokeColor=#B20000;fontColor=#ffffff;" vertex="1" parent="WIyWlLk6GJQsqaUBKTNV-1">
          <mxGeometry x="340" y="300" width="40" height="40" as="geometry" />
        </mxCell>
        <mxCell id="d4LzkRzi1lua-EBWQe4--18" style="edgeStyle=orthogonalEdgeStyle;rounded=0;orthogonalLoop=1;jettySize=auto;html=1;exitX=1;exitY=0.5;exitDx=0;exitDy=0;entryX=0;entryY=0.5;entryDx=0;entryDy=0;" edge="1" parent="WIyWlLk6GJQsqaUBKTNV-1" source="d4LzkRzi1lua-EBWQe4--16" target="d4LzkRzi1lua-EBWQe4--17">
          <mxGeometry relative="1" as="geometry" />
        </mxCell>
        <mxCell id="d4LzkRzi1lua-EBWQe4--16" value="Criar um ID Trace para a transferência" style="rounded=1;whiteSpace=wrap;html=1;" vertex="1" parent="WIyWlLk6GJQsqaUBKTNV-1">
          <mxGeometry x="620" y="160" width="120" height="60" as="geometry" />
        </mxCell>
        <mxCell id="d4LzkRzi1lua-EBWQe4--21" style="edgeStyle=orthogonalEdgeStyle;rounded=0;orthogonalLoop=1;jettySize=auto;html=1;exitX=1;exitY=0.5;exitDx=0;exitDy=0;entryX=0;entryY=0.5;entryDx=0;entryDy=0;" edge="1" parent="WIyWlLk6GJQsqaUBKTNV-1" source="d4LzkRzi1lua-EBWQe4--17" target="d4LzkRzi1lua-EBWQe4--20">
          <mxGeometry relative="1" as="geometry" />
        </mxCell>
        <mxCell id="d4LzkRzi1lua-EBWQe4--30" style="edgeStyle=orthogonalEdgeStyle;rounded=0;orthogonalLoop=1;jettySize=auto;html=1;exitX=0.5;exitY=0;exitDx=0;exitDy=0;entryX=0.5;entryY=1;entryDx=0;entryDy=0;dashed=1;dashPattern=1 1;" edge="1" parent="WIyWlLk6GJQsqaUBKTNV-1" source="d4LzkRzi1lua-EBWQe4--17" target="d4LzkRzi1lua-EBWQe4--29">
          <mxGeometry relative="1" as="geometry" />
        </mxCell>
        <mxCell id="d4LzkRzi1lua-EBWQe4--17" value="Débito na conta do PAGADOR (payer)" style="rounded=1;whiteSpace=wrap;html=1;" vertex="1" parent="WIyWlLk6GJQsqaUBKTNV-1">
          <mxGeometry x="800" y="160" width="120" height="60" as="geometry" />
        </mxCell>
        <mxCell id="d4LzkRzi1lua-EBWQe4--23" style="edgeStyle=orthogonalEdgeStyle;rounded=0;orthogonalLoop=1;jettySize=auto;html=1;exitX=0.5;exitY=1;exitDx=0;exitDy=0;entryX=1;entryY=0.5;entryDx=0;entryDy=0;" edge="1" parent="WIyWlLk6GJQsqaUBKTNV-1" source="d4LzkRzi1lua-EBWQe4--20" target="d4LzkRzi1lua-EBWQe4--22">
          <mxGeometry relative="1" as="geometry" />
        </mxCell>
        <mxCell id="d4LzkRzi1lua-EBWQe4--26" style="edgeStyle=orthogonalEdgeStyle;rounded=0;orthogonalLoop=1;jettySize=auto;html=1;exitX=1;exitY=0.5;exitDx=0;exitDy=0;entryX=0;entryY=0.5;entryDx=0;entryDy=0;" edge="1" parent="WIyWlLk6GJQsqaUBKTNV-1" source="d4LzkRzi1lua-EBWQe4--20" target="d4LzkRzi1lua-EBWQe4--25">
          <mxGeometry relative="1" as="geometry" />
        </mxCell>
        <mxCell id="d4LzkRzi1lua-EBWQe4--20" value="Autorizador?" style="rhombus;whiteSpace=wrap;html=1;fontSize=9;" vertex="1" parent="WIyWlLk6GJQsqaUBKTNV-1">
          <mxGeometry x="990" y="150" width="80" height="80" as="geometry" />
        </mxCell>
        <mxCell id="d4LzkRzi1lua-EBWQe4--24" style="edgeStyle=orthogonalEdgeStyle;rounded=0;orthogonalLoop=1;jettySize=auto;html=1;exitX=0;exitY=0.5;exitDx=0;exitDy=0;entryX=1;entryY=0.5;entryDx=0;entryDy=0;" edge="1" parent="WIyWlLk6GJQsqaUBKTNV-1" source="d4LzkRzi1lua-EBWQe4--22" target="d4LzkRzi1lua-EBWQe4--10">
          <mxGeometry relative="1" as="geometry" />
        </mxCell>
        <mxCell id="d4LzkRzi1lua-EBWQe4--34" style="edgeStyle=orthogonalEdgeStyle;rounded=0;orthogonalLoop=1;jettySize=auto;html=1;exitX=0.5;exitY=1;exitDx=0;exitDy=0;entryX=0.5;entryY=0;entryDx=0;entryDy=0;" edge="1" parent="WIyWlLk6GJQsqaUBKTNV-1" source="d4LzkRzi1lua-EBWQe4--22" target="d4LzkRzi1lua-EBWQe4--33">
          <mxGeometry relative="1" as="geometry" />
        </mxCell>
        <mxCell id="d4LzkRzi1lua-EBWQe4--22" value="Estorno do dinheiro ao pagador" style="rounded=1;whiteSpace=wrap;html=1;" vertex="1" parent="WIyWlLk6GJQsqaUBKTNV-1">
          <mxGeometry x="800" y="290" width="120" height="60" as="geometry" />
        </mxCell>
        <mxCell id="d4LzkRzi1lua-EBWQe4--32" style="edgeStyle=orthogonalEdgeStyle;rounded=0;orthogonalLoop=1;jettySize=auto;html=1;entryX=0.5;entryY=1;entryDx=0;entryDy=0;dashed=1;dashPattern=1 1;" edge="1" parent="WIyWlLk6GJQsqaUBKTNV-1" source="d4LzkRzi1lua-EBWQe4--25" target="d4LzkRzi1lua-EBWQe4--31">
          <mxGeometry relative="1" as="geometry" />
        </mxCell>
        <mxCell id="d4LzkRzi1lua-EBWQe4--37" style="edgeStyle=orthogonalEdgeStyle;rounded=0;orthogonalLoop=1;jettySize=auto;html=1;exitX=1;exitY=0.5;exitDx=0;exitDy=0;entryX=0;entryY=0.5;entryDx=0;entryDy=0;" edge="1" parent="WIyWlLk6GJQsqaUBKTNV-1" source="d4LzkRzi1lua-EBWQe4--25" target="d4LzkRzi1lua-EBWQe4--36">
          <mxGeometry relative="1" as="geometry" />
        </mxCell>
        <mxCell id="d4LzkRzi1lua-EBWQe4--25" value="Crédito na conta do Recebedor (payee)" style="rounded=1;whiteSpace=wrap;html=1;" vertex="1" parent="WIyWlLk6GJQsqaUBKTNV-1">
          <mxGeometry x="1160" y="160" width="120" height="60" as="geometry" />
        </mxCell>
        <mxCell id="d4LzkRzi1lua-EBWQe4--29" value="&lt;div&gt;{&lt;/div&gt;&lt;div&gt;&amp;nbsp; &amp;nbsp; &quot;id_payment_trace&quot;: &quot;valor-uuid-v4&quot;,&lt;/div&gt;&lt;div&gt;&amp;nbsp; &amp;nbsp; &quot;type&quot;: &quot;debit&quot;,&lt;/div&gt;&lt;div&gt;&amp;nbsp; &amp;nbsp; &quot;amount&quot;: 100,&lt;/div&gt;&lt;div&gt;&amp;nbsp; &amp;nbsp; &quot;user_id&quot;: 4&lt;/div&gt;&lt;div&gt;}&lt;/div&gt;" style="text;html=1;align=center;verticalAlign=middle;whiteSpace=wrap;rounded=0;" vertex="1" parent="WIyWlLk6GJQsqaUBKTNV-1">
          <mxGeometry x="745" y="20" width="230" height="80" as="geometry" />
        </mxCell>
        <mxCell id="d4LzkRzi1lua-EBWQe4--31" value="&lt;div&gt;{&lt;/div&gt;&lt;div&gt;&amp;nbsp; &amp;nbsp; &quot;id_payment_trace&quot;: &quot;valor-uuid-v4&quot;,&lt;/div&gt;&lt;div&gt;&amp;nbsp; &amp;nbsp; &quot;type&quot;: &quot;credit&quot;,&lt;/div&gt;&lt;div&gt;&amp;nbsp; &amp;nbsp; &quot;amount&quot;: 100,&lt;/div&gt;&lt;div&gt;&amp;nbsp; &amp;nbsp; &quot;user_id&quot;: 15&lt;/div&gt;&lt;div&gt;}&lt;/div&gt;" style="text;html=1;align=center;verticalAlign=middle;whiteSpace=wrap;rounded=0;" vertex="1" parent="WIyWlLk6GJQsqaUBKTNV-1">
          <mxGeometry x="1105" y="20" width="230" height="80" as="geometry" />
        </mxCell>
        <mxCell id="d4LzkRzi1lua-EBWQe4--33" value="&lt;div&gt;{&lt;/div&gt;&lt;div&gt;&amp;nbsp; &amp;nbsp; &quot;id_payment_trace&quot;: &quot;valor-uuid-v4&quot;,&lt;/div&gt;&lt;div&gt;&amp;nbsp; &amp;nbsp; &quot;type&quot;: &quot;reversal&quot;,&lt;/div&gt;&lt;div&gt;&amp;nbsp; &amp;nbsp; &quot;amount&quot;: 100,&lt;/div&gt;&lt;div&gt;&amp;nbsp; &amp;nbsp; &quot;user_id&quot;: 4&lt;/div&gt;&lt;div&gt;&lt;span style=&quot;background-color: transparent; color: light-dark(rgb(0, 0, 0), rgb(255, 255, 255));&quot;&gt;}&lt;/span&gt;&lt;/div&gt;" style="text;html=1;align=center;verticalAlign=middle;whiteSpace=wrap;rounded=0;" vertex="1" parent="WIyWlLk6GJQsqaUBKTNV-1">
          <mxGeometry x="745" y="410" width="230" height="80" as="geometry" />
        </mxCell>
        <mxCell id="d4LzkRzi1lua-EBWQe4--35" value="" style="ellipse;whiteSpace=wrap;html=1;aspect=fixed;fillColor=#e51400;strokeColor=#B20000;fontColor=#ffffff;" vertex="1" parent="WIyWlLk6GJQsqaUBKTNV-1">
          <mxGeometry x="1510" y="170" width="40" height="40" as="geometry" />
        </mxCell>
        <mxCell id="d4LzkRzi1lua-EBWQe4--38" style="edgeStyle=orthogonalEdgeStyle;rounded=0;orthogonalLoop=1;jettySize=auto;html=1;exitX=1;exitY=0.5;exitDx=0;exitDy=0;" edge="1" parent="WIyWlLk6GJQsqaUBKTNV-1" source="d4LzkRzi1lua-EBWQe4--36" target="d4LzkRzi1lua-EBWQe4--35">
          <mxGeometry relative="1" as="geometry" />
        </mxCell>
        <mxCell id="d4LzkRzi1lua-EBWQe4--36" value="Envio de notificação de transferencia recebida" style="rounded=1;whiteSpace=wrap;html=1;" vertex="1" parent="WIyWlLk6GJQsqaUBKTNV-1">
          <mxGeometry x="1340" y="160" width="120" height="60" as="geometry" />
        </mxCell>
      </root>
    </mxGraphModel>
  </diagram>
</mxfile>
